<svg id="Layer_1" data-name="Layer 1" xmlns="http://www.w3.org/2000/svg" viewBox="0 0 973.04 968.74">
<title>Gold</title>
<g>
	<polygon style="fill:#F7B239;" points="142.642,318.63 23.78,318.63 8.442,385.73 157.98,385.73 	"/>
	<polygon style="fill:#F7B239;" points="488.221,318.63 369.358,318.63 354.021,385.73 503.557,385.73 	"/>
	<polygon style="fill:#F7B239;" points="315.432,318.63 196.568,318.63 181.232,385.73 330.768,385.73 	"/>
	<polygon style="fill:#F7B239;" points="315.432,126.273 196.568,126.273 181.232,193.373 330.768,193.373 	"/>
	<polygon style="fill:#F7B239;" points="401.826,221.395 282.963,221.395 267.626,288.495 417.163,288.495 	"/>
	<polygon style="fill:#F7B239;" points="229.037,221.395 110.174,221.395 94.838,288.495 244.374,288.495 	"/>
</g>
<g>
	<path style="fill:#333333;" d="M157.98,394.172H8.442c-2.57,0-4.999-1.171-6.601-3.18c-1.602-2.009-2.202-4.639-1.629-7.145
		l15.337-67.1c0.878-3.839,4.292-6.562,8.231-6.562h118.863c3.938,0,7.353,2.722,8.231,6.562l15.337,67.1
		c0.573,2.506-0.027,5.135-1.629,7.145C162.979,393.003,160.55,394.172,157.98,394.172z M19.033,377.287h128.357l-11.478-50.215
		H30.51L19.033,377.287z"/>
	<path style="fill:#333333;" d="M503.557,394.172H354.021c-2.57,0-4.999-1.171-6.601-3.18c-1.602-2.009-2.202-4.639-1.629-7.144
		l15.336-67.1c0.877-3.84,4.292-6.562,8.231-6.562h118.864c3.938,0,7.353,2.722,8.231,6.562l15.336,67.1
		c0.573,2.505-0.027,5.134-1.629,7.144C508.559,393.002,506.127,394.172,503.557,394.172z M364.611,377.287h128.357l-11.478-50.215
		H376.089L364.611,377.287z"/>
	<path style="fill:#333333;" d="M330.768,394.172H181.232c-2.57,0-4.999-1.171-6.601-3.18c-1.602-2.009-2.202-4.639-1.629-7.145
		l15.337-67.1c0.878-3.839,4.292-6.562,8.231-6.562h118.862c3.938,0,7.353,2.722,8.231,6.562l15.337,67.1
		c0.573,2.506-0.027,5.135-1.629,7.145C335.771,393.001,333.338,394.172,330.768,394.172z M191.821,377.287h128.355l-11.478-50.215
		h-105.4L191.821,377.287z"/>
	<path style="fill:#333333;" d="M330.768,201.816H181.232c-2.57,0-4.999-1.171-6.601-3.18c-1.602-2.009-2.202-4.639-1.629-7.145
		l15.337-67.1c0.878-3.839,4.292-6.562,8.231-6.562h118.862c3.938,0,7.353,2.722,8.231,6.562l15.337,67.1
		c0.573,2.506-0.027,5.135-1.629,7.145C335.771,200.645,333.338,201.816,330.768,201.816z M191.821,184.931h128.355l-11.478-50.215
		h-105.4L191.821,184.931z"/>
</g>
<g>
	<path style="fill:#FFFFFF;" d="M296.791,179.392c-3.917,0-7.432-2.743-8.258-6.73l-4.712-22.724
		c-0.947-4.566,1.988-9.034,6.553-9.98c4.569-0.946,9.034,1.988,9.98,6.553l4.712,22.724c0.947,4.566-1.988,9.034-6.553,9.98
		C297.934,179.335,297.358,179.392,296.791,179.392z"/>
	<path style="fill:#FFFFFF;" d="M212.76,274.324c-3.917,0-7.432-2.743-8.258-6.73l-4.712-22.724
		c-0.947-4.566,1.987-9.034,6.553-9.98c4.564-0.949,9.034,1.987,9.98,6.553l4.712,22.724c0.947,4.566-1.987,9.034-6.553,9.98
		C213.905,274.265,213.328,274.324,212.76,274.324z"/>
	<path style="fill:#FFFFFF;" d="M386.679,274.324c-3.917,0-7.432-2.743-8.258-6.73l-4.712-22.724
		c-0.947-4.566,1.988-9.034,6.553-9.98c4.566-0.946,9.034,1.987,9.98,6.553l4.712,22.724c0.947,4.566-1.988,9.034-6.553,9.98
		C387.824,274.265,387.248,274.324,386.679,274.324z"/>
	<path style="fill:#FFFFFF;" d="M474.765,372.891c-3.917,0-7.432-2.743-8.258-6.73l-4.712-22.724
		c-0.947-4.566,1.988-9.034,6.553-9.98c4.569-0.944,9.034,1.987,9.98,6.553l4.712,22.724c0.947,4.566-1.988,9.034-6.553,9.98
		C475.91,372.833,475.334,372.891,474.765,372.891z"/>
	<path style="fill:#FFFFFF;" d="M301.585,372.891c-3.917,0-7.432-2.743-8.258-6.73l-4.712-22.724
		c-0.947-4.566,1.988-9.034,6.553-9.98c4.568-0.944,9.034,1.987,9.98,6.553l4.712,22.724c0.947,4.566-1.988,9.034-6.553,9.98
		C302.73,372.833,302.153,372.891,301.585,372.891z"/>
	<path style="fill:#FFFFFF;" d="M126.645,372.891c-3.917,0-7.432-2.743-8.258-6.73l-4.712-22.724
		c-0.947-4.566,1.987-9.034,6.553-9.98c4.564-0.948,9.034,1.988,9.98,6.553l4.712,22.724c0.947,4.566-1.987,9.034-6.553,9.98
		C127.79,372.833,127.213,372.891,126.645,372.891z"/>
</g>
<g>
	<path style="fill:#333333;" d="M417.163,296.938H267.625c-2.57,0-4.999-1.171-6.601-3.18c-1.602-2.009-2.202-4.639-1.629-7.145
		l15.337-67.1c0.877-3.839,4.292-6.562,8.231-6.562h118.864c3.938,0,7.353,2.722,8.231,6.562l15.336,67.1
		c0.573,2.505-0.027,5.134-1.629,7.144C422.164,295.766,419.733,296.938,417.163,296.938z M278.217,280.052h128.357l-11.478-50.215
		H289.694L278.217,280.052z"/>
	<path style="fill:#333333;" d="M244.374,296.938H94.838c-2.57,0-4.999-1.171-6.601-3.18c-1.602-2.009-2.202-4.639-1.629-7.145
		l15.338-67.1c0.878-3.839,4.292-6.562,8.231-6.562h118.863c3.938,0,7.353,2.722,8.231,6.562l15.337,67.1
		c0.573,2.506-0.027,5.135-1.629,7.145C249.373,295.767,246.944,296.938,244.374,296.938z M105.427,280.052h128.357l-11.478-50.215
		H116.905L105.427,280.052z"/>
</g>
</svg>
